<?xml version="1.0" encoding="utf-8"?>
<!-- Generator: Adobe Illustrator 26.0.3, SVG Export Plug-In . SVG Version: 6.00 Build 0)  -->
<svg version="1.1" id="Layer_1" xmlns="http://www.w3.org/2000/svg" xmlns:xlink="http://www.w3.org/1999/xlink" x="0px" y="0px"
	 viewBox="0 0 332 80.1" style="enable-background:new 0 0 332 80.1;" xml:space="preserve">
<style type="text/css">
	.st0{fill:#0094D9;}
	.st1{fill:#EDECED;}
	.st2{fill:#16457A;}
	.st3{fill:#F5ACCC;}
	.st4{fill-rule:evenodd;clip-rule:evenodd;fill:#16457A;}
	.st5{fill:#FFFFFF;}
</style>
<g>
	<polygon class="st0" points="20.4,13.6 27.2,0 95.3,0 88.4,13.6 	"/>
	<polygon class="st1" points="10.2,34 17,20.4 85,20.4 78.2,34 	"/>
	<g>
		<path class="st2" d="M78.8,34.8H8.9l7.6-15.3h69.9L78.8,34.8z M11.5,33.2h66.2l6-11.9H17.5L11.5,33.2z"/>
	</g>
	<polygon class="st3" points="0,54.4 6.8,40.8 74.8,40.8 68,54.4 	"/>
	<path class="st4" d="M323.2,65.3c0-3.2-2.9-5.8-6.4-5.8c-1.9,0-3.5,0.7-4.7,1.8h0c-1.1,1-1.8,2.4-1.8,4c0,1.5,0.7,3,1.8,4
		c1.2,1.1,2.8,1.8,4.7,1.8C320.3,71.1,323.2,68.5,323.2,65.3 M225.5,54.4l6.8-13.6h51l3.4-6.8h-51l17-34h68l-6.8,13.6h-51l-3.4,6.8
		h51l-17,34H225.5z M154.7,45.6L177.5,0h17l-20.4,40.8h34L228.6,0h17l-27.2,54.4h-54.7l4.7,4.7h134.7c0.8-1.6,1.9-3.1,3.2-4.4l0,0
		c2.8-2.6,6.5-4.2,10.6-4.2c8.4,0,15.2,6.6,15.2,14.8c0,8.2-6.8,14.8-15.2,14.8c-4.1,0-7.9-1.6-10.6-4.2c-1.3-1.3-2.4-2.7-3.2-4.4
		H180.6h-20.4l-51-51h34l3.4-6.8h-34L92.2,54.4h-17L102.4,0h68l-17,34h-10.2L154.7,45.6z"/>
	<path class="st5" d="M297.3,67.7v-0.9h3.7c0.2,0,0.3,0,0.4-0.1c0.1-0.1,0.1-0.2,0.1-0.3v-0.3c0-0.1,0-0.3-0.1-0.3
		c-0.1-0.1-0.2-0.1-0.4-0.1h-2.3c-0.3,0-0.5,0-0.7-0.1c-0.2-0.1-0.3-0.1-0.4-0.2c-0.1-0.1-0.2-0.2-0.2-0.4c0-0.2-0.1-0.3-0.1-0.5
		v-0.2c0-0.2,0-0.5,0.1-0.6c0.1-0.2,0.1-0.3,0.2-0.4c0.1-0.1,0.3-0.2,0.4-0.2c0.2-0.1,0.4-0.1,0.6-0.1h1.5v0.9h-1.4
		c-0.2,0-0.3,0-0.4,0.1c-0.1,0.1-0.1,0.2-0.1,0.4v0.2c0,0.2,0,0.3,0.1,0.3c0.1,0.1,0.2,0.1,0.4,0.1h2.3c0.3,0,0.5,0,0.7,0.1
		c0.2,0,0.3,0.1,0.5,0.2c0.1,0.1,0.2,0.2,0.3,0.4c0.1,0.2,0.1,0.3,0.1,0.6v0.4c0,0.2,0,0.4-0.1,0.6c-0.1,0.2-0.1,0.3-0.3,0.4
		c-0.1,0.1-0.3,0.2-0.5,0.2c-0.2,0-0.4,0.1-0.7,0.1H297.3z M293.3,67.7c-0.4,0-0.7,0-0.9-0.1c-0.2-0.1-0.4-0.2-0.6-0.3
		c-0.1-0.1-0.2-0.3-0.3-0.5c-0.1-0.2-0.1-0.5-0.1-0.8v-1.5c0-0.3,0-0.6,0.1-0.8c0.1-0.2,0.2-0.4,0.3-0.5c0.1-0.1,0.3-0.2,0.6-0.3
		c0.2-0.1,0.5-0.1,0.9-0.1h1.2v0.9h-1.2c-0.2,0-0.3,0-0.4,0c-0.1,0-0.2,0.1-0.2,0.1c-0.1,0.1-0.1,0.1-0.1,0.2c0,0.1,0,0.2,0,0.4v0.3
		h4.1v0.9h-4.1V66c0,0.1,0,0.3,0,0.4c0,0.1,0.1,0.2,0.1,0.2c0.1,0.1,0.1,0.1,0.2,0.1c0.1,0,0.2,0,0.4,0h3.4v0.9H293.3z M286.8,65.9
		v1.8h-1.1v-3.2c0-0.3,0-0.6,0.1-0.8c0.1-0.2,0.2-0.4,0.3-0.5c0.1-0.1,0.3-0.2,0.6-0.3c0.2-0.1,0.5-0.1,0.9-0.1h1.1v0.9h-1.1
		c-0.3,0-0.5,0.1-0.6,0.2c-0.1,0.1-0.2,0.3-0.2,0.6V65h4.1v0.9H286.8z M281.3,67.7c-0.4,0-0.6,0-0.9-0.1c-0.2-0.1-0.4-0.2-0.6-0.3
		c-0.1-0.1-0.2-0.3-0.3-0.5c-0.1-0.2-0.1-0.5-0.1-0.8v-3.2h1.1V66c0,0.2,0,0.3,0,0.4c0,0.1,0.1,0.2,0.1,0.2c0.1,0.1,0.2,0.1,0.3,0.1
		c0.1,0,0.2,0,0.4,0h1.6c0.2,0,0.3,0,0.4,0c0.1,0,0.2-0.1,0.3-0.1c0.1-0.1,0.1-0.1,0.1-0.2c0-0.1,0-0.2,0-0.4v-3.1h1.1V66
		c0,0.3,0,0.6-0.1,0.8c-0.1,0.2-0.2,0.4-0.3,0.5c-0.1,0.1-0.3,0.2-0.6,0.3c-0.2,0.1-0.5,0.1-0.9,0.1H281.3z M271.4,65.8h2.3
		l-1.2-1.9L271.4,65.8z M274.2,66.6h-3.4l-0.7,1.1H269l2.8-4.5c0.1-0.1,0.2-0.3,0.3-0.3c0.1-0.1,0.3-0.1,0.5-0.1
		c0.2,0,0.4,0,0.5,0.1c0.1,0.1,0.2,0.2,0.3,0.3l2.8,4.5h-1.2L274.2,66.6z M267.7,64.6c0-0.1,0-0.3,0-0.4c0-0.1-0.1-0.2-0.1-0.2
		c-0.1-0.1-0.1-0.1-0.3-0.1c-0.1,0-0.2,0-0.4,0h-2.7v3h2.7c0.1,0,0.3,0,0.4,0c0.1,0,0.2-0.1,0.3-0.1c0.1-0.1,0.1-0.1,0.1-0.2
		c0-0.1,0-0.2,0-0.4V64.6z M263.1,67.7v-4.8h3.8c0.4,0,0.7,0,0.9,0.1c0.2,0.1,0.4,0.2,0.6,0.3c0.1,0.1,0.2,0.3,0.3,0.5
		c0.1,0.2,0.1,0.5,0.1,0.8V66c0,0.3,0,0.6-0.1,0.8c-0.1,0.2-0.2,0.4-0.3,0.5c-0.1,0.1-0.3,0.2-0.6,0.3c-0.2,0.1-0.5,0.1-0.9,0.1
		H263.1z M255,65.8h2.3l-1.2-1.9L255,65.8z M257.8,66.6h-3.4l-0.7,1.1h-1.2l2.8-4.5c0.1-0.1,0.2-0.3,0.3-0.3
		c0.1-0.1,0.3-0.1,0.5-0.1c0.2,0,0.4,0,0.5,0.1c0.1,0.1,0.2,0.2,0.3,0.3l2.8,4.5h-1.2L257.8,66.6z M248.9,67.7c-0.4,0-0.7,0-0.9-0.1
		c-0.2-0.1-0.4-0.2-0.6-0.3c-0.1-0.1-0.2-0.3-0.3-0.5c-0.1-0.2-0.1-0.5-0.1-0.8v-1.5c0-0.3,0-0.6,0.1-0.8c0.1-0.2,0.2-0.4,0.3-0.5
		c0.1-0.1,0.3-0.2,0.6-0.3c0.2-0.1,0.5-0.1,0.9-0.1h3.4v0.9h-3.3c-0.2,0-0.3,0-0.4,0c-0.1,0-0.2,0.1-0.3,0.1
		c-0.1,0.1-0.1,0.1-0.1,0.2c0,0.1,0,0.2,0,0.4V66c0,0.2,0,0.3,0,0.4c0,0.1,0.1,0.2,0.1,0.2c0.1,0.1,0.1,0.1,0.3,0.1
		c0.1,0,0.2,0,0.4,0h3.3v0.9H248.9z M245.1,67.7v-4.8h1.1v4.8H245.1z M241.4,67.7v-3.9h-2v-0.9h5.1v0.9h-2v3.9H241.4z M235.5,62.4
		l0.9-1.5h1.1l-1.1,1.5H235.5z M237.8,64.6c0-0.2,0-0.3,0-0.4c0-0.1-0.1-0.2-0.1-0.2c-0.1-0.1-0.1-0.1-0.3-0.1c-0.1,0-0.2,0-0.4,0
		h-1.7c-0.2,0-0.3,0-0.4,0c-0.1,0-0.2,0.1-0.3,0.1c-0.1,0.1-0.1,0.1-0.1,0.2c0,0.1,0,0.2,0,0.4V66c0,0.2,0,0.3,0,0.4
		c0,0.1,0.1,0.2,0.1,0.2c0.1,0.1,0.1,0.1,0.3,0.1c0.1,0,0.2,0,0.4,0h1.7c0.2,0,0.3,0,0.4,0c0.1,0,0.2-0.1,0.3-0.1
		c0.1-0.1,0.1-0.1,0.1-0.2c0-0.1,0-0.2,0-0.4V64.6z M235.2,67.7c-0.4,0-0.7,0-0.9-0.1c-0.2-0.1-0.4-0.2-0.6-0.3
		c-0.1-0.1-0.2-0.3-0.3-0.5c-0.1-0.2-0.1-0.5-0.1-0.8v-1.5c0-0.3,0-0.6,0.1-0.8c0.1-0.2,0.2-0.4,0.3-0.5c0.1-0.1,0.3-0.2,0.6-0.3
		c0.2-0.1,0.5-0.1,0.9-0.1h1.8c0.4,0,0.7,0,0.9,0.1c0.2,0.1,0.4,0.2,0.6,0.3c0.1,0.1,0.2,0.3,0.3,0.5c0.1,0.2,0.1,0.5,0.1,0.8V66
		c0,0.3,0,0.6-0.1,0.8c-0.1,0.2-0.2,0.4-0.3,0.5c-0.1,0.1-0.3,0.2-0.6,0.3c-0.2,0.1-0.5,0.1-0.9,0.1H235.2z M228.1,63.7v1.1h3
		c0.2,0,0.3,0,0.4-0.1c0.1-0.1,0.1-0.2,0.1-0.3v-0.3c0-0.1,0-0.2-0.1-0.3c-0.1-0.1-0.2-0.1-0.5-0.1H228.1z M228.1,65.6v1.2h3
		c0.2,0,0.3,0,0.4-0.1c0.1-0.1,0.1-0.2,0.1-0.3v-0.3c0-0.2,0-0.3-0.1-0.4c-0.1-0.1-0.2-0.1-0.4-0.1H228.1z M227,62.9h4.1
		c0.3,0,0.5,0,0.7,0.1c0.2,0,0.4,0.1,0.5,0.2c0.1,0.1,0.2,0.2,0.3,0.3c0.1,0.1,0.1,0.3,0.1,0.5v0.4c0,0.3-0.1,0.5-0.2,0.6
		c-0.1,0.1-0.2,0.2-0.4,0.3c0.1,0,0.2,0,0.2,0.1c0.1,0,0.1,0.1,0.2,0.2c0.1,0.1,0.1,0.2,0.1,0.3c0,0.1,0,0.3,0,0.5v0.4
		c0,0.2,0,0.4-0.1,0.5c-0.1,0.1-0.1,0.2-0.3,0.3c-0.1,0.1-0.3,0.1-0.5,0.2c-0.2,0-0.4,0.1-0.7,0.1H227V62.9z M225.1,64.6
		c0-0.2,0-0.3,0-0.4c0-0.1-0.1-0.2-0.1-0.2c-0.1-0.1-0.1-0.1-0.3-0.1c-0.1,0-0.2,0-0.4,0h-1.7c-0.2,0-0.3,0-0.4,0
		c-0.1,0-0.2,0.1-0.3,0.1c-0.1,0.1-0.1,0.1-0.1,0.2c0,0.1,0,0.2,0,0.4V66c0,0.2,0,0.3,0,0.4c0,0.1,0.1,0.2,0.1,0.2
		c0.1,0.1,0.1,0.1,0.3,0.1c0.1,0,0.2,0,0.4,0h1.7c0.2,0,0.3,0,0.4,0c0.1,0,0.2-0.1,0.3-0.1c0.1-0.1,0.1-0.1,0.1-0.2
		c0-0.1,0-0.2,0-0.4V64.6z M222.5,67.7c-0.4,0-0.7,0-0.9-0.1c-0.2-0.1-0.4-0.2-0.6-0.3c-0.1-0.1-0.2-0.3-0.3-0.5
		c-0.1-0.2-0.1-0.5-0.1-0.8v-1.5c0-0.3,0-0.6,0.1-0.8c0.1-0.2,0.2-0.4,0.3-0.5c0.1-0.1,0.3-0.2,0.6-0.3c0.2-0.1,0.5-0.1,0.9-0.1h1.8
		c0.4,0,0.7,0,0.9,0.1c0.2,0.1,0.4,0.2,0.6,0.3c0.1,0.1,0.2,0.3,0.3,0.5c0.1,0.2,0.1,0.5,0.1,0.8V66c0,0.3,0,0.6-0.1,0.8
		c-0.1,0.2-0.2,0.4-0.3,0.5c-0.1,0.1-0.3,0.2-0.6,0.3c-0.2,0.1-0.5,0.1-0.9,0.1H222.5z M218.9,64.4c0-0.1,0-0.2,0-0.3
		c0-0.1-0.1-0.1-0.1-0.2c-0.1,0-0.2-0.1-0.3-0.1c-0.1,0-0.3,0-0.4,0h-2.7v1.5h2.7c0.2,0,0.3,0,0.4,0c0.1,0,0.2,0,0.3-0.1
		c0.1,0,0.1-0.1,0.1-0.2c0-0.1,0-0.2,0-0.3V64.4z M218.2,67.7l-2.8-1.8v1.8h-1.1v-4.8h3.8c0.3,0,0.6,0,0.9,0.1
		c0.2,0,0.4,0.1,0.6,0.2c0.2,0.1,0.3,0.3,0.3,0.4c0.1,0.2,0.1,0.4,0.1,0.7v0.3c0,0.3,0,0.5-0.1,0.7c-0.1,0.2-0.2,0.3-0.4,0.4
		c-0.2,0.1-0.4,0.2-0.6,0.2c-0.2,0-0.5,0.1-0.9,0.1h-0.9l2.8,1.6H218.2z M207.4,67.7c-0.4,0-0.7,0-0.9-0.1c-0.2-0.1-0.4-0.2-0.6-0.3
		c-0.1-0.1-0.2-0.3-0.3-0.5c-0.1-0.2-0.1-0.5-0.1-0.8v-1.5c0-0.3,0-0.6,0.1-0.8c0.1-0.2,0.2-0.4,0.3-0.5c0.1-0.1,0.3-0.2,0.6-0.3
		c0.2-0.1,0.5-0.1,0.9-0.1h1.2v0.9h-1.2c-0.2,0-0.3,0-0.4,0c-0.1,0-0.2,0.1-0.2,0.1c-0.1,0.1-0.1,0.1-0.1,0.2c0,0.1,0,0.2,0,0.4v0.3
		h4.1v0.9h-4.1V66c0,0.1,0,0.3,0,0.4c0,0.1,0.1,0.2,0.1,0.2c0.1,0.1,0.1,0.1,0.2,0.1c0.1,0,0.2,0,0.4,0h3.4v0.9H207.4z M203.7,64.6
		c0-0.1,0-0.3,0-0.4c0-0.1-0.1-0.2-0.1-0.2c-0.1-0.1-0.1-0.1-0.3-0.1c-0.1,0-0.2,0-0.4,0h-2.7v3h2.7c0.1,0,0.3,0,0.4,0
		c0.1,0,0.2-0.1,0.3-0.1c0.1-0.1,0.1-0.1,0.1-0.2c0-0.1,0-0.2,0-0.4V64.6z M199.1,67.7v-4.8h3.8c0.4,0,0.7,0,0.9,0.1
		c0.2,0.1,0.4,0.2,0.6,0.3c0.1,0.1,0.2,0.3,0.3,0.5c0.1,0.2,0.1,0.5,0.1,0.8V66c0,0.3,0,0.6-0.1,0.8c-0.1,0.2-0.2,0.4-0.3,0.5
		c-0.1,0.1-0.3,0.2-0.6,0.3c-0.2,0.1-0.5,0.1-0.9,0.1H199.1z M192.2,67.7c-0.4,0-0.7,0-0.9-0.1c-0.2-0.1-0.4-0.2-0.6-0.3
		c-0.1-0.1-0.2-0.3-0.3-0.5c-0.1-0.2-0.1-0.5-0.1-0.8v-1.5c0-0.3,0-0.6,0.1-0.8c0.1-0.2,0.2-0.4,0.3-0.5c0.1-0.1,0.3-0.2,0.6-0.3
		c0.2-0.1,0.5-0.1,0.9-0.1h1.2v0.9h-1.2c-0.2,0-0.3,0-0.4,0c-0.1,0-0.2,0.1-0.2,0.1c-0.1,0.1-0.1,0.1-0.1,0.2c0,0.1,0,0.2,0,0.4v0.3
		h4.1v0.9h-4.1V66c0,0.1,0,0.3,0,0.4c0,0.1,0.1,0.2,0.1,0.2c0.1,0.1,0.1,0.1,0.2,0.1c0.1,0,0.2,0,0.4,0h3.4v0.9H192.2z M188.6,64.5
		c0-0.3-0.1-0.4-0.2-0.5c-0.1-0.1-0.3-0.1-0.6-0.1h-2.8v1.7h2.8c0.3,0,0.5,0,0.6-0.1c0.1-0.1,0.2-0.3,0.2-0.5V64.5z M185.1,66.3v1.4
		H184v-4.8h3.9c0.3,0,0.6,0,0.9,0.1c0.2,0.1,0.4,0.1,0.6,0.3c0.1,0.1,0.2,0.3,0.3,0.5c0.1,0.2,0.1,0.4,0.1,0.7v0.4
		c0,0.3,0,0.5-0.1,0.7c-0.1,0.2-0.2,0.3-0.3,0.5c-0.1,0.1-0.3,0.2-0.6,0.2c-0.2,0-0.5,0.1-0.9,0.1H185.1z M182,67.7v-4.8h1.1v4.8
		H182z M177.6,67.7c-0.4,0-0.6,0-0.9-0.1c-0.2-0.1-0.4-0.2-0.6-0.3c-0.1-0.1-0.2-0.3-0.3-0.5c-0.1-0.2-0.1-0.5-0.1-0.8v-3.2h1.1V66
		c0,0.2,0,0.3,0,0.4c0,0.1,0.1,0.2,0.1,0.2c0.1,0.1,0.2,0.1,0.3,0.1c0.1,0,0.2,0,0.4,0h1.6c0.2,0,0.3,0,0.4,0c0.1,0,0.2-0.1,0.3-0.1
		c0.1-0.1,0.1-0.1,0.1-0.2c0-0.1,0-0.2,0-0.4v-3.1h1.1V66c0,0.3,0,0.6-0.1,0.8c-0.1,0.2-0.2,0.4-0.3,0.5c-0.1,0.1-0.3,0.2-0.6,0.3
		c-0.2,0.1-0.5,0.1-0.9,0.1H177.6z M173.8,64.6c0-0.2,0-0.3,0-0.4c0-0.1-0.1-0.2-0.1-0.2c-0.1-0.1-0.1-0.1-0.3-0.1
		c-0.1,0-0.2,0-0.4,0h-1.7c-0.2,0-0.3,0-0.4,0c-0.1,0-0.2,0.1-0.3,0.1c-0.1,0.1-0.1,0.1-0.1,0.2c0,0.1,0,0.2,0,0.4v1.2
		c0,0.2,0,0.4,0,0.5c0,0.1,0.1,0.2,0.1,0.3c0.1,0.1,0.1,0.1,0.2,0.1c0.1,0,0.3,0,0.4,0h1.7c0.2,0,0.3,0,0.4,0c0.1,0,0.2-0.1,0.3-0.1
		c0.1-0.1,0.1-0.1,0.1-0.2c0-0.1,0-0.2,0-0.4V64.6z M174,68.4l-0.7-0.7h-2c-0.4,0-0.7,0-0.9-0.1c-0.2-0.1-0.4-0.1-0.6-0.3
		c-0.1-0.1-0.2-0.3-0.3-0.5c-0.1-0.2-0.1-0.5-0.1-0.8v-1.5c0-0.3,0-0.6,0.1-0.8c0.1-0.2,0.2-0.4,0.3-0.5c0.1-0.1,0.3-0.2,0.6-0.3
		c0.2-0.1,0.5-0.1,0.9-0.1h1.8c0.4,0,0.7,0,0.9,0.1c0.2,0.1,0.4,0.2,0.6,0.3c0.1,0.1,0.2,0.3,0.3,0.5c0.1,0.2,0.1,0.5,0.1,0.8V66
		c0,0.4,0,0.6-0.1,0.9c-0.1,0.2-0.2,0.4-0.4,0.5l0.9,1H174z M165.3,67.7c-0.4,0-0.7,0-0.9-0.1c-0.2-0.1-0.4-0.2-0.6-0.3
		c-0.1-0.1-0.2-0.3-0.3-0.5c-0.1-0.2-0.1-0.5-0.1-0.8v-1.5c0-0.3,0-0.6,0.1-0.8c0.1-0.2,0.2-0.4,0.3-0.5c0.1-0.1,0.3-0.2,0.6-0.3
		c0.2-0.1,0.5-0.1,0.9-0.1h1.2v0.9h-1.2c-0.2,0-0.3,0-0.4,0c-0.1,0-0.2,0.1-0.2,0.1c-0.1,0.1-0.1,0.1-0.1,0.2c0,0.1,0,0.2,0,0.4v0.3
		h4.1v0.9h-4.1V66c0,0.1,0,0.3,0,0.4c0,0.1,0.1,0.2,0.1,0.2c0.1,0.1,0.1,0.1,0.2,0.1c0.1,0,0.2,0,0.4,0h3.4v0.9H165.3z"/>
</g>
</svg>
